<?xml version="1.0" encoding="utf-8"?>
<!-- Generator: Adobe Illustrator 25.2.0, SVG Export Plug-In . SVG Version: 6.00 Build 0)  -->
<svg version="1.1" id="Layer_1" xmlns="http://www.w3.org/2000/svg" xmlns:xlink="http://www.w3.org/1999/xlink" x="0px" y="0px"
	 viewBox="0 0 60 60" style="enable-background:new 0 0 60 60;" xml:space="preserve">
<style type="text/css">
	.st0{fill:none;stroke:#66318F;stroke-width:2;stroke-miterlimit:10;}
	.st1{fill:#8DC641;}
	.st2{fill-rule:evenodd;clip-rule:evenodd;fill:#673490;}
	.st3{fill:#FFFFFF;}
</style>
<circle class="st0" cx="30" cy="30.1" r="29.1"/>
<circle class="st1" cx="30" cy="30.1" r="26.5"/>
<path class="st2" d="M36.3,28h11.4c0.3,0,0.6,0.3,0.6,0.6v0v11.3c0,0.3-0.3,0.6-0.6,0.6h0H36.3c-0.3,0-0.6-0.3-0.6-0.6v0V28.5
	C35.8,28.2,36,28,36.3,28L36.3,28L36.3,28z M51.5,43.4V25.1c0-1.1-0.9-2-2-2h-33c-1.1,0-2,0.9-2,2v18.2c0,1.1,0.9,2,2,2h33
	C50.6,45.3,51.5,44.5,51.5,43.4L51.5,43.4z M18.4,31.4H33c0.3,0,0.6,0.3,0.6,0.6c0,0.3-0.3,0.6-0.6,0.6H18.4c-0.3,0-0.6-0.3-0.6-0.6
	C17.8,31.7,18.1,31.4,18.4,31.4z M18.4,34.9H33c0.3,0,0.6,0.3,0.6,0.6c0,0.3-0.3,0.6-0.6,0.6H18.4c-0.3,0-0.6-0.3-0.6-0.6
	C17.8,35.2,18.1,34.9,18.4,34.9z M17.8,39c0-0.6,0.4-1,0.9-1.1c0.6,0,1,0.4,1.1,0.9c0,0.6-0.4,1-0.9,1.1c0,0-0.1,0-0.1,0
	C18.2,39.9,17.8,39.5,17.8,39z M33,38.4c0.3,0,0.6,0.3,0.6,0.6c0,0.3-0.3,0.6-0.6,0.6H22.7c-0.3,0-0.6-0.3-0.6-0.6
	c0-0.3,0.3-0.6,0.6-0.6c0,0,0,0,0,0H33z M33.6,28.5c0,0.3-0.3,0.6-0.6,0.6l0,0H18.4c-0.3,0-0.6-0.3-0.6-0.6c0-0.3,0.3-0.6,0.6-0.6
	H33C33.3,27.9,33.6,28.2,33.6,28.5C33.6,28.5,33.6,28.5,33.6,28.5L33.6,28.5z"/>
<path class="st2" d="M43.5,35.6c0.5-0.3,0.8-0.8,1-1.3c0.6-0.6,0.7-1.4,0.4-2.1c0-0.1,0-0.2,0-0.2c0-0.6-0.2-1.1-0.6-1.5
	c-0.4-0.4-0.9-0.6-1.4-0.7c-0.2,0-0.3,0-0.5,0h0c-0.1,0-0.3,0-0.5,0c-0.5,0.1-1,0.3-1.4,0.7c-0.4,0.4-0.6,0.9-0.6,1.5v0.2
	c-0.3,0.7-0.2,1.6,0.4,2.1c0.2,0.5,0.5,1,1,1.3C42,36.1,42.9,36.1,43.5,35.6L43.5,35.6z"/>
<path class="st2" d="M38.2,39.9h8.8c0.1-1-0.4-1.9-1.2-2.5l0,0c-1.1-0.6-2.3-0.9-3.5-0.8c-1.2,0-2.4,0.3-3.5,0.8l0,0
	c-0.8,0.6-1.3,1.5-1.2,2.5H38.2z"/>
<g>
	<circle class="st1" cx="13.9" cy="22.4" r="8.5"/>
	<g>
		<circle class="st3" cx="13.9" cy="22.4" r="7.8"/>
		<path class="st1" d="M7.9,21.2h12c0.6,0,1.1,0.5,1.1,1.1v0.2c0,0.6-0.5,1.1-1.1,1.1h-12c-0.6,0-1.1-0.5-1.1-1.1v-0.2
			C6.8,21.7,7.3,21.2,7.9,21.2z"/>
		<path class="st1" d="M15.1,16.4v12c0,0.6-0.5,1.1-1.1,1.1h-0.2c-0.6,0-1.1-0.5-1.1-1.1v-12c0-0.6,0.5-1.1,1.1-1.1H14
			C14.6,15.3,15.1,15.8,15.1,16.4z"/>
	</g>
</g>
</svg>
