<svg id="Layer_1" data-name="Layer 1" xmlns="http://www.w3.org/2000/svg" viewBox="0 0 60 60"><defs><style>.cls-1{fill:none;stroke:#66318f;stroke-miterlimit:10;stroke-width:2px;}.cls-2{fill:#8dc641;}.cls-3{fill:#fff;}.cls-4{font-size:6.01px;font-family:ArialRoundedMTBold, Arial Rounded MT Bold;}.cls-4,.cls-5{fill:#673490;}.cls-5{fill-rule:evenodd;}</style></defs><circle class="cls-1" cx="30" cy="30" r="29.09"/><circle class="cls-2" cx="30" cy="30" r="26.55"/><path class="cls-3" d="M25.13,14.86a1.2,1.2,0,0,0-.38-.37,6.08,6.08,0,0,0-.06-.86c0-.42.15-2.72-1.25-3.75a4.71,4.71,0,0,0-2.79-1,3.57,3.57,0,0,0-2.09.63,3,3,0,0,0-.95,1,1.89,1.89,0,0,0-1.76,1.36A2.2,2.2,0,0,0,16,14c0,.19,0,.35,0,.47a1.3,1.3,0,0,0-.37.37,1.93,1.93,0,0,0-.13,1.56c.32,1.2,1.05,1.47,1.44,1.52a7.83,7.83,0,0,0,1.3,2,2.64,2.64,0,0,0,.82.5,3.53,3.53,0,0,0,1.33.25,3.57,3.57,0,0,0,1.33-.25,2.48,2.48,0,0,0,.81-.5,8.17,8.17,0,0,0,1.31-2c.39-.05,1.12-.32,1.44-1.52A2,2,0,0,0,25.13,14.86Zm-.77,1.33c-.19.73-.53.84-.72.84h0a.43.43,0,0,0-.5.26,8.19,8.19,0,0,1-1.23,1.94,1.59,1.59,0,0,1-.52.31,2.71,2.71,0,0,1-2,0,1.76,1.76,0,0,1-.53-.31,8.13,8.13,0,0,1-1.22-1.94.44.44,0,0,0-.4-.27H17.1c-.19,0-.53-.11-.72-.84a1.1,1.1,0,0,1,0-.81.21.21,0,0,1,.16-.13.44.44,0,0,0,.38-.5,4,4,0,0,1,0-.55,3.54,3.54,0,0,0,1.25-.86,2.79,2.79,0,0,0,.49-.79,5.72,5.72,0,0,0,1.33.8,15.12,15.12,0,0,0,3.82.72,5.18,5.18,0,0,1,0,.68.44.44,0,0,0,.38.5.3.3,0,0,1,.16.13A1.15,1.15,0,0,1,24.36,16.19Zm3,6.17-4-1.62a.52.52,0,0,0-.37,0,.47.47,0,0,0-.24.26l-1,2.81-.2-.58.32-.78a.46.46,0,0,0-.42-.64h-2A.45.45,0,0,0,19,22a.44.44,0,0,0,0,.43l.31.78-.2.58-1-2.81a.46.46,0,0,0-.25-.26.5.5,0,0,0-.36,0l-4,1.62a3.22,3.22,0,0,0-2,3v3.26a.46.46,0,0,0,.46.46H28.9a.45.45,0,0,0,.46-.46V25.37A3.22,3.22,0,0,0,27.32,22.36Zm-.14,4.35a.46.46,0,0,1-.46.46h-3.1a.46.46,0,0,1-.46-.46V25.27a.46.46,0,0,1,.46-.47h3.1a.46.46,0,0,1,.46.47v1.44Z"/><rect class="cls-3" x="22.75" y="24.33" width="4.86" height="3.59"/><path class="cls-3" d="M44.13,14.86a1.3,1.3,0,0,0-.37-.37,6.36,6.36,0,0,0-.07-.86c0-.42.16-2.72-1.25-3.75a4.71,4.71,0,0,0-2.79-1,3.59,3.59,0,0,0-2.09.63,2.92,2.92,0,0,0-.94,1,1.89,1.89,0,0,0-1.77,1.36A2.2,2.2,0,0,0,35,14a4.29,4.29,0,0,0,0,.47,1.32,1.32,0,0,0-.38.37,1.93,1.93,0,0,0-.12,1.56c.31,1.2,1,1.47,1.43,1.52a8.17,8.17,0,0,0,1.31,2,2.48,2.48,0,0,0,.81.5,3.57,3.57,0,0,0,1.33.25,3.53,3.53,0,0,0,1.33-.25,2.53,2.53,0,0,0,.82-.5,7.83,7.83,0,0,0,1.3-2c.39-.05,1.12-.32,1.44-1.52A1.93,1.93,0,0,0,44.13,14.86Zm-.77,1.33c-.19.73-.53.84-.72.84h0a.43.43,0,0,0-.5.26,8.13,8.13,0,0,1-1.22,1.94,1.76,1.76,0,0,1-.53.31,2.68,2.68,0,0,1-2,0,1.54,1.54,0,0,1-.53-.31,8.19,8.19,0,0,1-1.23-1.94.42.42,0,0,0-.39-.27H36.1c-.19,0-.53-.11-.72-.84a1.15,1.15,0,0,1,0-.81.25.25,0,0,1,.16-.13.44.44,0,0,0,.38-.5,4,4,0,0,1,0-.55,3.66,3.66,0,0,0,1.26-.86,3.32,3.32,0,0,0,.49-.79,5.85,5.85,0,0,0,1.32.8,15.12,15.12,0,0,0,3.82.72,2.85,2.85,0,0,1,0,.68.44.44,0,0,0,.38.5.24.24,0,0,1,.16.13A1.1,1.1,0,0,1,43.36,16.19Zm3,6.17-4-1.62a.5.5,0,0,0-.36,0,.46.46,0,0,0-.25.26l-1,2.81-.2-.58.32-.78a.47.47,0,0,0,0-.43.45.45,0,0,0-.38-.21h-2a.46.46,0,0,0-.43.64l.32.78-.2.58-1-2.81a.47.47,0,0,0-.24-.26.5.5,0,0,0-.36,0l-4,1.62a3.22,3.22,0,0,0-2,3v3.26a.45.45,0,0,0,.46.46H47.91a.46.46,0,0,0,.46-.46V25.37A3.22,3.22,0,0,0,46.33,22.36Zm-.14,4.35a.47.47,0,0,1-.47.46h-3.1a.47.47,0,0,1-.46-.46V25.27a.47.47,0,0,1,.46-.47h3.1a.47.47,0,0,1,.47.47v1.44Z"/><rect class="cls-3" x="41.76" y="24.33" width="4.86" height="3.59"/><text class="cls-4" transform="translate(37.65 18.93)">?</text><path class="cls-5" d="M38.91,39.28a2.33,2.33,0,0,0,.88-1.22,1.73,1.73,0,0,0,.36-2,1.48,1.48,0,0,0,0-.21,2,2,0,0,0-.51-1.36,2.17,2.17,0,0,0-1.29-.63,3.33,3.33,0,0,0-.46,0h0a2.77,2.77,0,0,0-.42,0,2.17,2.17,0,0,0-1.29.63,2,2,0,0,0-.51,1.36,1.48,1.48,0,0,0,0,.21,1.73,1.73,0,0,0,.36,2,2.33,2.33,0,0,0,.88,1.22,1.75,1.75,0,0,0,2,0Z"/><path class="cls-5" d="M34.15,43.2H42.2a2.47,2.47,0,0,0-1.07-2.27h0a6.77,6.77,0,0,0-3.23-.78,6.62,6.62,0,0,0-3.2.78h0a2.5,2.5,0,0,0-1.08,2.27Z"/><path class="cls-5" d="M32.93,32.81H43.34a.53.53,0,0,1,.53.53v10.4a.53.53,0,0,1-.53.53H32.93a.53.53,0,0,1-.53-.53V33.34a.53.53,0,0,1,.53-.53ZM46.82,46.88V30.2A1.86,1.86,0,0,0,45,28.34H14.78a1.88,1.88,0,0,0-1.86,1.86V46.88a1.88,1.88,0,0,0,1.86,1.86H45a1.86,1.86,0,0,0,1.85-1.86ZM16.52,36H29.89a.53.53,0,0,1,.53.53.53.53,0,0,1-.53.53H16.52a.52.52,0,0,1-.53-.53.53.53,0,0,1,.53-.53Zm0,3.18H29.89a.53.53,0,0,1,0,1.06H16.52a.53.53,0,1,1,0-1.06ZM16,42.87a.87.87,0,1,1,.86.86.86.86,0,0,1-.86-.86Zm13.9-.53a.53.53,0,0,1,.53.53.53.53,0,0,1-.53.53H20.46a.53.53,0,0,1-.53-.53.53.53,0,0,1,.53-.53Zm.53-9a.53.53,0,0,1-.53.53H16.52a.53.53,0,0,1,0-1.06H29.89A.53.53,0,0,1,30.42,33.34Z"/><polygon class="cls-3" points="22.82 41.49 27.38 45.23 38.02 36.62 27.38 47.39 22.82 41.49"/></svg>